name Precision Landing15_filtered_grf.mot
datacolumns 37
datarows 6
range 1.838500 1.841000
endheader
time	1_ground_force_vx	1_ground_force_vy	1_ground_force_vz	1_ground_force_px	1_ground_force_py	1_ground_force_pz	1_ground_torque_x	1_ground_torque_y	1_ground_torque_z	2_ground_force_vx	2_ground_force_vy	2_ground_force_vz	2_ground_force_px	2_ground_force_py	2_ground_force_pz	2_ground_torque_x	2_ground_torque_y	2_ground_torque_z	3_ground_force_vx	3_ground_force_vy	3_ground_force_vz	3_ground_force_px	3_ground_force_py	3_ground_force_pz	3_ground_torque_x	3_ground_torque_y	3_ground_torque_z	4_ground_force_vx	4_ground_force_vy	4_ground_force_vz	4_ground_force_px	4_ground_force_py	4_ground_force_pz	4_ground_torque_x	4_ground_torque_y	4_ground_torque_z
            1.838500	          -12.771371	          167.972841	           -5.148909	            0.129469	            0.000000	            0.326050	           -0.194195	            2.554107	           -0.078292	           40.042594	          437.649302	          -10.544917	           -0.168391	            0.000000	            0.341959	            0.036420	            0.398051	           -0.009591	            5.089649	           -0.472766	           -0.609614	            0.353548	            1.255191	            1.891285	            0.001031	           -0.000096	           -0.000123	          -18.428034	            0.525530	           -2.707332	           -0.289041	            1.264849	            1.901211	            0.006918	           -0.000197	            0.001016
            1.839000	          -12.773207	          167.929887	           -5.251832	            0.129507	            0.000000	            0.326105	           -0.193941	            2.549749	           -0.079741	           40.062931	          437.030157	          -10.475750	           -0.168429	            0.000000	            0.341992	            0.037379	            0.407747	           -0.009774	            5.114178	           -0.475112	           -0.609011	            0.353544	            1.255188	            1.891284	            0.000993	           -0.000092	           -0.000118	          -18.436536	            0.531265	           -2.711524	           -0.289039	            1.264849	            1.901211	            0.006582	           -0.000190	            0.000968
            1.839500	          -12.773933	          167.885856	           -5.353301	            0.129544	            0.000000	            0.326158	           -0.193656	            2.545197	           -0.081158	           40.082154	          436.405038	          -10.398729	           -0.168466	            0.000000	            0.342024	            0.038441	            0.418532	           -0.009973	            5.140415	           -0.477670	           -0.608776	            0.353540	            1.255185	            1.891283	            0.000943	           -0.000088	           -0.000112	          -18.443943	            0.537555	           -2.714126	           -0.289038	            1.264850	            1.901211	            0.006249	           -0.000182	            0.000920
            1.840000	          -12.773587	          167.840440	           -5.453114	            0.129580	            0.000000	            0.326207	           -0.193342	            2.540450	           -0.082539	           40.100240	          435.774058	          -10.313880	           -0.168502	            0.000000	            0.342053	            0.039606	            0.430398	           -0.010187	            5.168130	           -0.480424	           -0.608850	            0.353536	            1.255182	            1.891282	            0.000881	           -0.000082	           -0.000104	          -18.450263	            0.544365	           -2.715110	           -0.289037	            1.264851	            1.901211	            0.005919	           -0.000175	            0.000871
            1.840500	          -12.772214	          167.793345	           -5.551063	            0.129616	            0.000000	            0.326252	           -0.193000	            2.535510	           -0.083882	           40.117172	          435.137330	          -10.221280	           -0.168538	            0.000000	            0.342081	            0.040873	            0.443331	           -0.010414	            5.197090	           -0.483349	           -0.609116	            0.353531	            1.255179	            1.891281	            0.000808	           -0.000075	           -0.000095	          -18.455488	            0.551679	           -2.714670	           -0.289036	            1.264851	            1.901211	            0.005596	           -0.000167	            0.000823
            1.841000	          -12.769864	          167.744295	           -5.646941	            0.129651	            0.000000	            0.326295	           -0.192630	            2.530382	           -0.085183	           40.132939	          434.494967	          -10.121057	           -0.168573	            0.000000	            0.342108	            0.042240	            0.457312	           -0.010653	            5.227034	           -0.486435	           -0.609570	            0.353525	            1.255175	            1.891281	            0.000728	           -0.000068	           -0.000085	          -18.459684	            0.559436	           -2.712594	           -0.289035	            1.264852	            1.901210	            0.005281	           -0.000160	            0.000776
